<?xml version="1.0" standalone="no"?>
<!DOCTYPE svg PUBLIC "-//W3C//DTD SVG 20010904//EN"
 "http://www.w3.org/TR/2001/REC-SVG-20010904/DTD/svg10.dtd">
<svg version="1.0" xmlns="http://www.w3.org/2000/svg"
 width="832.000000pt" height="832.000000pt" viewBox="0 0 832.000000 832.000000"
 preserveAspectRatio="xMidYMid meet">
<metadata>
Created by potrace 1.14, written by Peter Selinger 2001-2017
</metadata>
<g transform="translate(0.000000,832.000000) scale(0.100000,-0.100000)"
fill="#000000" stroke="none">
<path d="M4496 7943 c-1 -2 -54 -5 -117 -8 -63 -4 -127 -8 -144 -10 -16 -2
-55 -6 -85 -9 -30 -3 -68 -9 -85 -12 -16 -4 -41 -8 -55 -9 -158 -18 -478 -110
-705 -203 -108 -45 -371 -175 -430 -212 -16 -11 -37 -23 -45 -27 -77 -36 -372
-249 -500 -362 -117 -102 -390 -380 -390 -396 0 -3 -8 -13 -17 -23 -24 -24
-79 -93 -125 -155 -20 -29 -41 -56 -45 -62 -28 -34 -103 -147 -103 -155 0 -5
-6 -15 -13 -22 -46 -46 -327 -595 -327 -638 0 -6 -4 -18 -10 -28 -10 -16 -99
-275 -100 -290 0 -5 -14 -56 -25 -92 -11 -34 -16 -59 -19 -80 -2 -14 -6 -32
-9 -40 -3 -8 -11 -42 -17 -75 -11 -61 -16 -84 -25 -132 -3 -16 -8 -44 -10 -63
-2 -19 -7 -53 -10 -75 -8 -51 -12 -88 -22 -200 -13 -141 -7 -740 7 -740 1 0 3
-22 5 -50 3 -45 29 -229 39 -280 13 -62 39 -182 42 -195 3 -13 10 -39 30 -115
3 -11 6 -24 8 -30 7 -31 38 -132 43 -145 3 -8 7 -21 9 -28 1 -7 14 -43 29 -80
15 -37 28 -74 30 -83 4 -19 30 -77 106 -237 33 -68 59 -128 59 -133 0 -5 5 -9
10 -9 6 0 10 -5 10 -12 0 -24 222 -388 242 -396 4 -2 8 -9 8 -15 0 -7 11 -24
25 -39 14 -15 25 -30 25 -32 0 -3 7 -14 15 -23 8 -10 37 -47 65 -83 72 -90
127 -154 183 -214 27 -28 63 -67 81 -86 50 -53 203 -192 271 -246 33 -27 62
-51 65 -54 7 -8 175 -129 230 -165 25 -17 47 -32 50 -35 3 -3 15 -11 28 -18
12 -6 32 -18 45 -25 12 -6 29 -17 37 -23 8 -6 44 -27 80 -46 36 -20 86 -48
112 -62 27 -15 48 -24 48 -20 0 4 9 -1 21 -12 12 -10 24 -18 28 -18 3 1 29 -9
56 -21 80 -37 126 -55 200 -81 39 -14 79 -29 90 -34 16 -8 112 -37 150 -46 6
-2 37 -10 70 -19 61 -17 180 -43 225 -50 14 -2 36 -6 49 -9 14 -3 45 -8 70
-11 25 -3 57 -7 71 -10 14 -3 57 -7 95 -10 39 -2 70 -5 70 -6 0 -8 420 -12
520 -5 43 3 120 11 215 21 14 2 25 4 25 5 0 1 12 3 26 5 15 2 44 6 65 10 22 3
55 8 74 11 19 3 51 9 70 14 19 5 46 11 60 14 42 9 141 36 225 63 44 14 85 26
90 27 6 2 19 7 30 11 11 4 61 24 110 43 152 58 354 160 515 258 36 22 76 47
90 55 14 8 27 16 30 19 3 3 43 32 90 65 93 64 205 152 260 202 19 18 38 33 42
33 5 0 74 66 155 148 130 130 243 256 323 360 14 18 35 45 47 60 37 44 44 37
-132 132 -99 53 -150 81 -290 157 -113 62 -239 130 -310 167 -22 12 -42 23
-45 26 -3 3 -32 19 -65 35 -93 47 -189 99 -195 106 -3 4 -15 10 -28 14 -19 5
-29 1 -50 -26 -54 -67 -303 -309 -318 -309 -3 0 -15 -9 -27 -21 -35 -32 -241
-167 -315 -206 -37 -19 -71 -38 -77 -42 -28 -22 -319 -133 -355 -136 -8 -1
-22 -5 -30 -8 -8 -4 -26 -8 -40 -11 -14 -2 -43 -9 -65 -14 -22 -6 -62 -14 -90
-17 -27 -4 -57 -8 -65 -11 -16 -4 -155 -15 -233 -18 -27 -1 -51 2 -53 6 -3 5
-13 4 -22 0 -9 -5 -33 -7 -52 -6 -96 7 -198 15 -220 19 -34 5 -101 16 -125 20
-31 5 -158 36 -175 43 -22 8 -22 8 -55 16 -16 4 -43 13 -60 20 -16 7 -66 28
-110 45 -72 28 -215 99 -269 134 -51 32 -208 139 -227 154 -260 211 -434 411
-608 698 -72 119 -205 408 -209 455 0 3 -10 29 -21 58 -11 28 -18 52 -15 52 4
0 2 6 -3 13 -5 6 -15 39 -22 72 -8 33 -17 74 -22 90 -5 17 -11 44 -13 60 -3
17 -7 44 -10 60 -3 17 -8 50 -11 75 -3 25 -8 59 -10 75 -6 41 -17 268 -16 330
0 82 16 320 21 320 1 0 3 16 5 35 2 19 6 49 9 65 3 17 8 48 12 70 3 22 8 43
10 46 2 3 6 19 8 35 30 164 135 449 230 629 188 353 439 638 764 868 28 20 54
37 56 37 2 0 35 19 72 42 65 39 267 140 289 144 6 1 33 11 60 22 77 31 89 35
99 33 4 -1 14 4 22 10 8 6 14 8 14 4 0 -4 6 -2 14 4 8 6 18 11 22 10 5 -1 16
0 24 3 17 6 102 25 145 33 110 19 168 27 225 30 78 5 291 6 340 1 88 -9 163
-18 183 -22 31 -7 63 -13 92 -18 25 -5 32 -6 110 -28 47 -12 57 -15 67 -17 40
-8 216 -80 318 -130 128 -64 313 -179 399 -248 131 -107 204 -176 319 -302
l48 -53 73 41 c40 22 74 41 76 41 2 0 66 34 141 75 75 41 138 75 140 75 2 0
43 22 91 48 49 27 138 75 198 107 61 33 142 76 180 97 39 22 86 47 105 56 19
9 37 19 40 22 3 3 17 11 33 17 15 7 27 18 27 24 0 11 -66 101 -125 169 -16 20
-50 60 -75 90 -127 152 -409 414 -572 531 -106 76 -295 199 -348 227 -19 11
-68 37 -107 60 -89 49 -205 105 -298 142 -38 16 -83 34 -100 41 -16 7 -32 13
-35 14 -3 1 -63 20 -135 43 -71 23 -182 53 -245 68 -143 32 -142 32 -199 39
-25 4 -57 8 -71 11 -14 2 -49 6 -78 9 -29 4 -63 8 -75 10 -32 7 -416 22 -421
18z"/>
</g>
</svg>
